<svg viewBox="0 0 40 40" xmlns="http://www.w3.org/2000/svg" xmlns:xlink="http://www.w3.org/1999/xlink" width="40.000000" height="40.000000" fill="none">
    <defs>
        <g id="pixso_custom_effect_0">
            <effect visibility="visible" effectType="backgroundBlur" saturation="0" stdDeviation="4" />
        </g>
        <filter id="filter_0" width="40.000000" height="40.000000" x="0.000000" y="0.000000" filterUnits="userSpaceOnUse" customEffect="url(#pixso_custom_effect_0)" color-interpolation-filters="sRGB">
            <feFlood flood-opacity="0" result="BackgroundImageFix" />
            <feGaussianBlur stdDeviation="1.33333337" in="BackgroundImage" />
            <feComposite result="effect_backgroundBlur_1" in2="SourceAlpha" operator="in" />
            <feBlend result="shape" in="SourceGraphic" in2="effect_backgroundBlur_1" mode="normal" />
        </filter>
    </defs>
    <g filter="url(#filter_0)">
        <rect id="O1CN01jC2rGb1ta2bhj8IN1_!!4611686018427385629-2-muse_ai 1" width="40.000000" height="40.000000" x="0.000000" y="0.000000" />
    </g>
    <path id="vec 1" d="M0 0C13.2 0 26.4 0 40 0C40 13.2 40 26.4 40 40C26.8 40 13.6 40 0 40C0 26.8 0 13.6 0 0Z" fill="rgb(52,52,55)" fill-rule="nonzero" />
    <path id="vec 2" d="M0 0C13.2 0 26.4 0 40 0C40 13.2 40 26.4 40 40C26.8 40 13.6 40 0 40C0 26.8 0 13.6 0 0ZM15.3828 4.09866C15.3343 4.09988 15.3343 4.09988 15.2848 4.10112C12.9107 4.16078 12.9107 4.16078 10.5469 4.375C10.5024 4.38048 10.4578 4.38595 10.412 4.39159C9.50286 4.50702 8.59269 4.66849 7.74811 5.03613C7.36293 5.21224 7.0163 5.42082 6.69495 5.69839C6.66413 5.72574 6.63331 5.75308 6.60156 5.78125C6.57316 5.80497 6.54476 5.82868 6.5155 5.85312C6.21257 6.10807 5.97234 6.40441 5.75272 6.7334C5.59616 6.97704 5.47124 7.23673 5.35156 7.5C5.33354 7.53948 5.31551 7.57896 5.29694 7.61963C4.93511 8.48617 4.83116 9.43919 4.73663 10.3655C4.65055 11.248 4.60688 12.1345 4.56543 13.02C4.56392 13.052 4.56241 13.0839 4.56085 13.1168C4.49725 14.487 4.48581 15.8572 4.48565 17.2286C4.48563 17.3704 4.48554 17.5122 4.48544 17.6539C4.48508 18.1534 4.48492 18.6529 4.48495 19.1524C4.48497 19.5595 4.4847 19.9667 4.48415 20.3739C4.47305 24.3256 4.47305 24.3256 4.67442 28.271C4.68569 28.4129 4.69581 28.5549 4.70551 28.6969C4.7686 29.5743 4.87203 30.4925 5.15625 31.3281C5.16601 31.358 5.17576 31.3878 5.18581 31.4185C5.33522 31.8717 5.51817 32.2959 5.78125 32.6953C5.88935 32.8482 6.00597 32.9873 6.13281 33.125C6.1526 33.1467 6.17239 33.1683 6.19278 33.1906C6.46493 33.4853 6.74162 33.7407 7.08817 33.9447C7.13428 33.971 7.18041 33.9972 7.22656 34.0234C7.24914 34.0368 7.27172 34.0502 7.29498 34.0639C7.77826 34.3498 8.29071 34.533 8.83331 34.673C9.58968 34.8553 10.3562 34.9255 11.1294 34.9928C11.2395 35.0025 11.3494 35.0133 11.4594 35.0241C13.1018 35.1785 14.7568 35.1683 16.4048 35.1668C16.6181 35.1666 16.8313 35.1666 17.0446 35.1667C17.0909 35.1667 17.0909 35.1667 17.1382 35.1667C17.2011 35.1668 17.2639 35.1668 17.3268 35.1668C17.9102 35.167 18.4935 35.1668 19.0769 35.1664C19.5718 35.166 20.0668 35.1661 20.5617 35.1664C21.1433 35.1669 21.7249 35.167 22.3064 35.1668C22.3691 35.1668 22.4317 35.1667 22.4944 35.1667C22.5406 35.1667 22.5406 35.1667 22.5877 35.1667C22.7993 35.1666 23.0109 35.1667 23.2225 35.1669C25.1967 35.1685 27.1688 35.1401 29.1368 34.968C29.2141 34.9613 29.2914 34.955 29.3687 34.9486C30.2801 34.8722 31.2002 34.7197 32.0532 34.3799C32.5069 34.1901 32.9172 33.9715 33.2988 33.6604C33.6476 33.366 33.9648 33.0485 34.2174 32.6669C34.4247 32.3407 34.5877 32.0009 34.7266 31.6406C34.7441 31.5951 34.7617 31.5496 34.7798 31.5027C35.3554 29.8918 35.3496 28.0602 35.4346 26.3696C35.4361 26.3402 35.4376 26.3107 35.4391 26.2804C35.5058 24.958 35.5146 23.6352 35.5156 22.3113C35.5158 22.1689 35.5159 22.0265 35.5161 21.8841C35.5166 21.4326 35.517 20.9811 35.5171 20.5296C35.5173 20.0699 35.5178 19.6102 35.5188 19.1506C35.5261 16.2302 35.5261 16.2302 35.4532 13.311C35.4519 13.279 35.4507 13.247 35.4494 13.214C35.3667 10.4918 35.3667 10.4918 34.7765 7.84658C34.6081 7.3691 34.3803 6.91177 34.0796 6.50391C33.7861 6.13125 33.4515 5.77428 33.063 5.50007C32.64 5.21677 32.1662 4.97156 31.6849 4.80499C29.9273 4.28912 28.0515 4.23285 26.2328 4.16025C26.1939 4.1587 26.1551 4.15715 26.115 4.15554C26.0325 4.15225 25.95 4.14896 25.8674 4.14567C25.7449 4.14073 25.6223 4.13564 25.4997 4.13051C23.8621 4.06272 22.2267 4.05019 20.5879 4.05246C20.3522 4.05275 20.1166 4.05265 19.881 4.05231C18.3811 4.05027 16.8823 4.06065 15.3828 4.09866Z" fill="transparent" fill-rule="nonzero" />
    <path id="vec 3" d="M19.6948 11.748C19.7452 11.7483 19.7956 11.7486 19.8475 11.7489C20.3048 11.7541 20.7301 11.7887 21.1694 11.9214C21.6635 12.0809 22.1439 12.2921 22.5781 12.5781C22.9279 12.8242 23.2584 13.1315 23.5296 13.4633C23.6208 13.5817 23.7065 13.7036 23.7891 13.8281C24.0023 13.6762 24.1966 13.5102 24.3898 13.3337C24.5245 13.2133 24.6645 13.1003 24.8048 12.9866C25.1364 12.7147 25.4597 12.4321 25.7812 12.1484C25.8199 12.1613 25.8586 12.1742 25.8984 12.1875C25.9242 12.2205 25.95 12.2536 25.9766 12.2876C26.082 12.4145 26.2009 12.5184 26.3261 12.6253C26.4502 12.7337 26.5644 12.8511 26.6797 12.9687C26.7447 13.0339 26.8098 13.099 26.875 13.164C27.0703 13.3594 27.2656 13.5547 27.4609 13.75C27.4609 13.7758 27.4609 13.8015 27.4609 13.8281C27.4961 13.8434 27.4961 13.8434 27.532 13.8591C27.5601 13.8746 27.5882 13.8902 27.6172 13.9062C27.6755 13.9668 27.6755 13.9668 27.7295 14.0356C27.8075 14.1309 27.8851 14.2123 27.981 14.2895C28.0156 14.3177 28.0502 14.3459 28.0859 14.375C28.0988 14.4008 28.1117 14.4265 28.125 14.4531C28.1637 14.466 28.2023 14.4789 28.2422 14.4922C28.268 14.5437 28.2938 14.5953 28.3203 14.6484C28.3461 14.6613 28.3719 14.6742 28.3984 14.6875C28.3984 14.7133 28.3984 14.739 28.3984 14.7656C28.4242 14.7656 28.45 14.7656 28.4766 14.7656C28.4912 14.7831 28.5059 14.8006 28.521 14.8186C28.7494 15.0899 28.7494 15.0899 29.0234 15.3125C29.0234 15.3383 29.0234 15.364 29.0234 15.3906C29.0492 15.3906 29.075 15.3906 29.1016 15.3906C29.1181 15.4104 29.1347 15.4303 29.1518 15.4507C29.265 15.5837 29.3765 15.7093 29.5117 15.8203C29.6062 15.8984 29.6867 15.9781 29.7656 16.0718C29.9951 16.3426 30.2554 16.5867 30.5078 16.8359C30.5078 16.8617 30.5078 16.8875 30.5078 16.914C30.5465 16.9269 30.5852 16.9398 30.625 16.9531C30.625 16.9789 30.625 17.0047 30.625 17.0312C30.6458 17.0394 30.6667 17.0475 30.6882 17.0558C30.8185 17.1308 30.9159 17.2344 31.0204 17.3408C31.0431 17.3637 31.0658 17.3865 31.0892 17.41C31.1617 17.483 31.2339 17.5562 31.3062 17.6294C31.3546 17.6782 31.403 17.727 31.4515 17.7758C31.5409 17.8658 31.6302 17.956 31.7194 18.0463C31.823 18.1511 31.927 18.2553 32.0312 18.3594C32.0587 18.3873 32.0862 18.4153 32.1146 18.444C32.1402 18.4701 32.1659 18.4961 32.1924 18.5229C32.2183 18.5493 32.2441 18.5756 32.2708 18.6027C32.3469 18.6787 32.3469 18.6787 32.4609 18.75C32.4609 18.7758 32.4609 18.8015 32.4609 18.8281C32.4843 18.8383 32.5076 18.8484 32.5317 18.8589C32.6172 18.9062 32.6172 18.9062 32.6763 18.9662C32.6958 18.9902 32.7152 19.0141 32.7353 19.0388C32.9256 19.2636 33.1358 19.4681 33.3447 19.6753C33.3851 19.7155 33.4255 19.7557 33.4659 19.7959C33.5401 19.8698 33.6144 19.9437 33.6888 20.0175C33.7875 20.1156 33.886 20.214 33.9844 20.3125C34.0167 20.3448 34.049 20.3771 34.0823 20.4104C34.4533 20.7814 34.8243 21.1524 35.1953 21.5234C35.1953 21.5492 35.1953 21.575 35.1953 21.6015C35.2864 21.6487 35.371 21.6861 35.4688 21.7187C35.4943 25.9777 35.4943 25.9777 35.3516 27.8906C35.3477 27.9429 35.3477 27.9429 35.3439 27.9961C35.314 28.4045 35.2779 28.8116 35.2344 29.2187C35.23 29.2617 35.2255 29.3047 35.221 29.349C35.1319 30.2023 34.9784 31.0402 34.6484 31.8359C34.5546 32.05 34.449 32.2565 34.3359 32.4609C34.3157 32.4984 34.2955 32.5359 34.2746 32.5744C34.0748 32.9158 33.8007 33.2047 33.5156 33.4765C33.3423 33.6322 33.1595 33.7727 32.9688 33.9062C32.9344 33.9305 32.9 33.9547 32.8645 33.9796C32.4145 34.2661 31.8907 34.4629 31.3811 34.6119C29.9075 35.0034 28.3506 35.0413 26.8359 35.1172C26.7911 35.1194 26.7911 35.1194 26.7454 35.1217C25.9168 35.1629 25.0871 35.16 24.2577 35.161C24.1703 35.1611 24.0829 35.1613 23.9955 35.1614C23.8567 35.1617 23.7178 35.1617 23.5789 35.1615C23.5021 35.1614 23.4253 35.1615 23.3485 35.1617C23.3019 35.1615 23.2554 35.1614 23.2074 35.1613C23.1465 35.1612 23.1465 35.1612 23.0844 35.1612C22.965 35.1561 22.8518 35.1392 22.7344 35.1172C22.7255 35.0898 22.7167 35.0624 22.7075 35.0342C22.6439 34.8948 22.5623 34.8021 22.4609 34.6875C22.4609 34.6617 22.4609 34.6359 22.4609 34.6094C22.4264 34.5938 22.4264 34.5938 22.3911 34.578C22.3017 34.5296 22.2436 34.4795 22.1722 34.4076C22.1472 34.3826 22.1222 34.3576 22.0964 34.3318C22.0699 34.3049 22.0433 34.2779 22.016 34.2502C21.9885 34.2225 21.9609 34.1949 21.9326 34.1664C21.8448 34.0783 21.7574 33.9898 21.6699 33.9014C21.6104 33.8415 21.5509 33.7816 21.4914 33.7218C21.3456 33.5751 21.2001 33.4283 21.0547 33.2812C21.0547 33.2555 21.0547 33.2297 21.0547 33.2031C21.0031 33.1773 20.9516 33.1516 20.8984 33.125C20.8984 33.0992 20.8984 33.0734 20.8984 33.0469C20.8635 33.031 20.8635 33.031 20.8278 33.0148C20.7422 32.9687 20.7422 32.9687 20.6809 32.9164C20.6617 32.8967 20.6425 32.8771 20.6227 32.8569C20.6012 32.8351 20.5797 32.8133 20.5575 32.7909C20.5354 32.7682 20.5134 32.7455 20.4907 32.7222C20.4579 32.6888 20.4579 32.6888 20.4244 32.6548C20.3831 32.6128 20.3418 32.5707 20.3007 32.5285C20.2141 32.4402 20.1266 32.353 20.0391 32.2656C19.7786 32.0052 19.5182 31.7448 19.2578 31.4844C19.2368 31.4639 19.2158 31.4434 19.1942 31.4223C19.1409 31.3674 19.0931 31.3074 19.0454 31.2475C18.9959 31.1907 18.9959 31.1907 18.9453 31.1328C18.8613 31.0792 18.8613 31.0792 18.7891 31.0547C18.7793 31.0317 18.7696 31.0088 18.7596 30.9851C18.7147 30.8954 18.7147 30.8954 18.6391 30.8288C18.612 30.8067 18.585 30.7845 18.5571 30.7617C18.448 30.6719 18.3624 30.5848 18.2812 30.4687C18.2812 30.443 18.2812 30.4172 18.2812 30.3906C18.2168 30.3648 18.1523 30.339 18.0859 30.3125C18.0631 30.2841 18.0631 30.2841 18.0399 30.2551C17.9078 30.0969 17.7735 29.9645 17.6099 29.8389C17.5462 29.7897 17.4833 29.7394 17.4219 29.6875C17.3687 29.6101 17.3166 29.532 17.2656 29.4531C17.176 29.3683 17.0836 29.288 16.9893 29.2084C16.9645 29.186 16.9396 29.1636 16.9141 29.1406C16.9012 29.1148 16.8883 29.089 16.875 29.0625C16.8363 29.0496 16.7977 29.0367 16.7578 29.0234C16.7191 28.959 16.6805 28.8945 16.6406 28.8281C16.5439 28.7701 16.5439 28.7701 16.4453 28.7109C16.426 28.6529 16.426 28.6529 16.4062 28.5937C16.3888 28.5795 16.3713 28.5653 16.3533 28.5507C16.2356 28.4528 16.126 28.3572 16.0303 28.2373C15.944 28.1248 15.944 28.1248 15.8447 28.0517C15.7541 27.9783 15.6877 27.9083 15.6128 27.8198C15.4956 27.6823 15.3694 27.5673 15.2318 27.4509C15.116 27.3465 15.0203 27.23 14.9219 27.1094C15.0925 27.1682 15.2295 27.2606 15.376 27.3633C16.0447 27.8166 16.7555 28.1125 17.5252 28.3525C18.3299 28.5931 19.1629 28.6491 19.9987 28.6472C20.5007 28.6436 20.99 28.6068 21.4844 28.5156C21.5212 28.5091 21.558 28.5026 21.5959 28.4959C22.3018 28.3684 22.9647 28.1447 23.6036 27.8177C24.1638 27.5209 24.6575 27.1751 25.1085 26.7285C25.4828 26.3317 25.7686 25.8845 26.013 25.3995C26.0401 25.3445 26.067 25.2895 26.0938 25.2344C26.116 25.1887 26.1382 25.1431 26.161 25.0961C26.3612 24.6425 26.4396 24.158 26.5234 23.6719C26.5354 23.6052 26.5354 23.6052 26.5477 23.5371C26.6054 22.9964 26.6011 22.4191 26.5003 21.8839C26.4833 21.8024 26.4648 21.7215 26.4453 21.6406C26.4388 21.6132 26.4323 21.5857 26.4256 21.5575C26.312 21.0945 26.139 20.6532 25.896 20.2423C25.6615 19.8677 25.3764 19.5042 25.054 19.2006C24.9477 19.1108 24.839 19.0273 24.7266 18.9453C24.7059 18.93 24.6851 18.9146 24.6638 18.8988C24.1502 18.5226 23.5809 18.2513 22.9824 18.0376C22.0293 17.7133 21.055 17.5697 20.0606 17.4393C19.3147 17.3409 19.3147 17.3409 18.9664 17.2505C18.8611 17.2251 18.7573 17.2103 18.6499 17.1973C18.2438 17.1321 17.8373 16.9823 17.4664 16.8059C17.1734 16.6535 16.9173 16.4774 16.6765 16.252C16.537 16.1077 16.4278 15.9574 16.3322 15.7806C16.218 15.5567 16.1244 15.3295 16.0716 15.083C16.0324 14.8002 16.0317 14.5222 16.0757 14.2399C16.103 14.1138 16.1354 13.991 16.1719 13.8672C16.1818 13.8311 16.1918 13.7951 16.2021 13.7579C16.2695 13.544 16.3676 13.3609 16.4941 13.1763C16.642 12.9696 16.7942 12.7777 16.9922 12.6172C17.3419 12.3635 17.7186 12.142 18.125 11.9922C18.3044 11.9353 18.4865 11.8907 18.6708 11.8526C18.7261 11.8409 18.7812 11.8283 18.8362 11.8148C19.1225 11.7489 19.4019 11.7458 19.6948 11.748Z" fill="rgb(24,25,29)" fill-rule="nonzero" />
    <path id="vec 4" d="M19.7021 9.16994C19.7369 9.16987 19.7717 9.16981 19.8075 9.16974C20.2915 9.16968 20.7634 9.18444 21.2395 9.28002C21.3051 9.29252 21.3711 9.30333 21.4372 9.31323C21.7212 9.3558 21.9846 9.42568 22.2559 9.51906C22.317 9.53991 22.317 9.53991 22.3795 9.56119C22.99 9.77265 23.5697 10.0307 24.0995 10.4054C24.2613 10.5249 24.417 10.6512 24.5703 10.7813C24.6038 10.8097 24.6373 10.8381 24.6718 10.8673C24.9639 11.1238 25.2348 11.4032 25.5078 11.6797C25.5207 11.7442 25.5336 11.8086 25.5469 11.875C25.5249 11.8969 25.503 11.9187 25.4804 11.9412C25.2739 12.1469 25.0676 12.3527 24.8613 12.5585C24.7553 12.6644 24.6492 12.7702 24.543 12.8759C24.4406 12.9779 24.3383 13.08 24.2361 13.1821C24.197 13.2211 24.1579 13.2601 24.1187 13.299C24.064 13.3535 24.0094 13.408 23.9549 13.4626C23.9237 13.4937 23.8926 13.5247 23.8605 13.5567C23.7869 13.6279 23.7869 13.6279 23.75 13.711C23.7113 13.6981 23.6727 13.6852 23.6328 13.6719C23.6071 13.6378 23.6071 13.6378 23.5809 13.6029C23.3152 13.2594 23.0199 12.9271 22.6685 12.6685C22.1901 12.3552 21.6811 12.1149 21.1328 11.9531C20.5191 11.7852 19.9127 11.7735 19.2789 11.7897C18.9757 11.8054 18.6887 11.8667 18.3984 11.9531C18.3502 11.9673 18.3021 11.9814 18.2524 11.996C17.8621 12.1241 17.4918 12.3061 17.1529 12.5382C16.9302 12.7093 16.7313 12.9002 16.5625 13.125C16.4001 13.3814 16.2653 13.6564 16.1719 13.9453C16.0942 14.2328 16.0789 14.5197 16.0843 14.8166C16.0985 15.0331 16.1372 15.2257 16.2109 15.4297C16.308 15.6657 16.4151 15.8824 16.5666 16.0884C16.7294 16.2783 16.9063 16.4388 17.1153 16.5761C17.5184 16.8099 17.9498 16.9848 18.3984 17.1094C18.5143 17.1331 18.6294 17.1522 18.7466 17.1683C18.8595 17.1863 18.9666 17.2117 19.0771 17.2403C19.4402 17.3255 19.8095 17.3666 20.1789 17.4147C21.3217 17.565 22.4498 17.7414 23.5156 18.2031C23.9592 18.4068 24.3871 18.6349 24.7656 18.9453C24.7857 18.9612 24.8058 18.9771 24.8265 18.9935C25.1332 19.2359 25.3908 19.4892 25.625 19.8047C25.6485 19.8355 25.672 19.8662 25.6963 19.8979C25.955 20.2497 26.1641 20.632 26.3102 21.0434C26.4238 21.3807 26.5053 21.7191 26.5625 22.0703C26.5697 22.1109 26.5768 22.1515 26.5842 22.1933C26.6539 22.7963 26.623 23.416 26.5141 24.0119C26.3888 24.6455 26.1619 25.2108 25.8594 25.7813C25.5944 26.2491 25.2238 26.6673 24.8364 27.0386C24.3985 27.4211 23.8916 27.7333 23.3623 27.9724C22.7638 28.2336 22.1613 28.433 21.5161 28.5425C21.4695 28.5508 21.4229 28.5591 21.3749 28.5676C20.4955 28.7209 19.5689 28.7273 18.6816 28.6279C17.8794 28.5267 17.1089 28.2875 16.3672 27.9688C15.7853 27.7056 15.2415 27.3623 14.7607 26.9409C14.6967 26.8805 14.6333 26.8194 14.5703 26.7578C14.5483 26.7367 14.5262 26.7156 14.5035 26.6939C14.1667 26.3712 13.8664 26.0432 13.5938 25.6641C13.55 25.6041 13.5063 25.5442 13.4625 25.4843C13.2807 25.2345 13.0992 24.985 12.9297 24.7266C12.9684 24.6492 12.9684 24.6492 13.0078 24.5703C13.0673 24.5306 13.1269 24.491 13.1864 24.4513C13.2396 24.4158 13.2929 24.3803 13.3461 24.3448C13.493 24.2469 13.6399 24.149 13.7868 24.0511C14.16 23.8025 14.16 23.8025 14.5322 23.5523C14.5643 23.5306 14.5964 23.509 14.6295 23.4867C14.6858 23.4487 14.7421 23.4105 14.7982 23.3722C14.9264 23.2858 15.0487 23.2144 15.1953 23.1641C15.3197 23.3486 15.4415 23.5342 15.5591 23.7232C15.8631 24.2016 16.2124 24.6462 16.6406 25.0195C16.9649 25.2928 17.3289 25.5109 17.7141 25.6873C18.1588 25.865 18.6251 26.0003 19.1016 26.0547C19.3414 26.07 19.5816 26.07 19.8218 26.0694C19.8711 26.0693 19.8711 26.0693 19.9215 26.0692C20.3937 26.0674 20.8577 26.0585 21.3149 25.9272C21.7621 25.7864 22.1898 25.6124 22.5824 25.3537C22.8096 25.1922 23.0267 25.0338 23.2115 24.8233C23.4466 24.5155 23.6149 24.1772 23.7627 23.8205C23.8366 23.6053 23.87 23.407 23.8806 23.1807C23.8886 22.8651 23.8908 22.5461 23.8232 22.2363C23.7516 22.0075 23.6489 21.8006 23.5156 21.6016C23.382 21.4232 23.2359 21.2708 23.0647 21.1281C22.716 20.8758 22.3179 20.7271 21.9141 20.586C21.4371 20.4266 20.9412 20.3623 20.4452 20.2898C20.3516 20.2735 20.3516 20.2735 20.2344 20.2344C20.1691 20.2247 20.1037 20.2165 20.0381 20.2091C19.9987 20.2045 19.9592 20.2 19.9186 20.1953C19.8762 20.1905 19.8337 20.1856 19.79 20.1807C18.7017 20.0525 17.6151 19.9114 16.5981 19.4801C16.0044 19.2181 15.4562 18.9256 14.9628 18.5022C14.6073 18.1873 14.3178 17.8494 14.0584 17.4523C13.8164 17.0521 13.6116 16.6114 13.4913 16.1585C13.4512 15.9819 13.4228 15.8045 13.3984 15.625C13.3919 15.5829 13.3853 15.5408 13.3785 15.4975C13.31 14.9753 13.3103 14.3981 13.3788 13.8753C13.4301 13.5932 13.5043 13.3192 13.5938 13.0469C13.6033 13.0177 13.6129 12.9885 13.6228 12.9584C13.7874 12.4767 14.0317 12.0156 14.3237 11.5991C14.6248 11.1847 14.9716 10.8127 15.3791 10.5015C15.4475 10.4507 15.5165 10.4009 15.5859 10.3516C15.6079 10.3359 15.6299 10.3203 15.6526 10.3042C16.0122 10.0524 16.3947 9.86162 16.7969 9.68752C16.8394 9.66903 16.882 9.65055 16.9258 9.63152C17.428 9.42669 17.9768 9.28264 18.5156 9.21877C18.5428 9.21543 18.57 9.21209 18.598 9.20866C18.9651 9.16904 19.3333 9.1703 19.7021 9.16994Z" fill="rgb(247,242,225)" fill-rule="nonzero" />
    <path id="vec 5" d="M34.9219 7.92969C34.9521 8.04619 34.977 8.16312 35 8.28125C35.0258 8.28125 35.0516 8.28125 35.0781 8.28125C35.0652 8.3457 35.0523 8.41016 35.0391 8.47656C35.0648 8.47656 35.0906 8.47656 35.1172 8.47656C35.1172 8.52812 35.1172 8.57969 35.1172 8.63281C35.143 8.63281 35.1688 8.63281 35.1953 8.63281C35.1953 8.67148 35.1953 8.71016 35.1953 8.75C35.234 8.75 35.2727 8.75 35.3125 8.75C35.3383 8.87891 35.3641 9.00781 35.3906 9.14062C35.3648 9.21797 35.3391 9.29531 35.3125 9.375C35.3383 9.375 35.3641 9.375 35.3906 9.375C35.3777 9.49102 35.3648 9.60703 35.3516 9.72656C35.3957 9.59722 35.438 9.46915 35.4688 9.33594C35.4945 9.40039 35.5203 9.46484 35.5469 9.53125C35.534 9.67305 35.5211 9.81484 35.5078 9.96094C35.5658 10.0963 35.5658 10.0963 35.625 10.2344C35.6121 10.3246 35.5992 10.4148 35.5859 10.5078C35.5988 10.5207 35.6117 10.5336 35.625 10.5469C35.6686 10.4018 35.6763 10.2581 35.686 10.1074C35.6893 10.0581 35.6926 10.0087 35.696 9.95789C35.6983 9.92022 35.7007 9.88256 35.7031 9.84375C35.7611 9.78574 35.7611 9.78574 35.8203 9.72656C35.8596 9.88789 35.8621 10.0369 35.8594 10.2026C35.8572 10.4078 35.8655 10.6076 35.8897 10.8113C35.9031 10.9449 35.9009 11.0767 35.8984 11.2109C35.8855 11.2367 35.8727 11.2625 35.8594 11.2891C35.8336 11.2891 35.8078 11.2891 35.7812 11.2891C35.7684 11.2633 35.7555 11.2375 35.7422 11.2109C35.7422 11.2883 35.7422 11.3656 35.7422 11.4453C35.7551 11.4711 35.768 11.4969 35.7812 11.5234C35.7749 11.5562 35.7686 11.5889 35.762 11.6226C35.7187 11.9176 35.7213 12.2316 35.7642 12.5269C35.7698 12.5696 35.7754 12.6123 35.7812 12.6562C35.7642 12.7539 35.7642 12.7539 35.7422 12.8125C35.8002 12.7932 35.8002 12.7932 35.8594 12.7734C35.8594 13.1744 35.8594 13.1744 35.8588 13.3551C35.8544 14.7512 35.8607 16.1471 35.8752 17.5431C35.8764 17.6617 35.8776 17.7804 35.8788 17.899C35.889 18.9252 35.9077 19.9508 35.9375 20.9766C35.9246 20.9895 35.9117 21.0023 35.8984 21.0156C35.8985 21.0635 35.8986 21.1114 35.8987 21.1607C35.8995 21.6174 35.9001 22.0741 35.9005 22.5307C35.9007 22.7653 35.9009 23 35.9014 23.2346C35.9047 25.0297 35.9047 25.0297 35.8861 25.7112C35.8852 25.754 35.8843 25.7967 35.8834 25.8408C35.8767 26.0326 35.8562 26.2019 35.7997 26.3857C35.7892 26.4159 35.7787 26.4461 35.7679 26.4772C35.7418 26.5639 35.7334 26.6361 35.7321 26.7264C35.7338 26.777 35.7355 26.8277 35.7373 26.8799C35.7423 27.091 35.7379 27.2914 35.7031 27.5C35.7289 27.5 35.7547 27.5 35.7812 27.5C35.7812 27.6676 35.7812 27.8352 35.7812 28.0078C35.8199 27.9562 35.8586 27.9047 35.8984 27.8516C35.9113 27.9031 35.9242 27.9547 35.9375 28.0078C35.9117 28.0465 35.8859 28.0852 35.8594 28.125C35.8594 28.602 35.8594 29.0789 35.8594 29.5703C35.8465 29.5832 35.8336 29.5961 35.8203 29.6094C35.8203 29.7254 35.8203 29.8414 35.8203 29.9609C35.8074 29.9738 35.7945 29.9867 35.7812 30C35.7684 30.2578 35.7555 30.5156 35.7422 30.7812C35.768 30.7297 35.7938 30.6781 35.8203 30.625C35.8461 30.6121 35.8719 30.5992 35.8984 30.5859C35.9113 30.6117 35.9242 30.6375 35.9375 30.6641C35.9375 30.8574 35.9375 31.0508 35.9375 31.25C35.9117 31.3016 35.8859 31.3531 35.8594 31.4062C35.8626 31.4463 35.8659 31.4863 35.8693 31.5276C35.8733 31.5807 35.8773 31.6339 35.8813 31.687C35.8835 31.7133 35.8857 31.7396 35.888 31.7667C35.8966 31.8848 35.8985 31.9918 35.88 32.1089C35.8732 32.1348 35.8664 32.1608 35.8594 32.1875C35.8336 32.1875 35.8078 32.1875 35.7812 32.1875C35.7708 32.2229 35.7603 32.2584 35.7495 32.2949C35.7265 32.3578 35.7265 32.3578 35.7031 32.4219C35.6753 32.4569 35.6753 32.4569 35.647 32.4927C35.5842 32.5806 35.5548 32.6546 35.52 32.7563C35.5012 32.8136 35.4839 32.8714 35.4688 32.9297C35.4688 32.9684 35.4688 33.007 35.4688 33.0469C35.4518 33.0614 35.4349 33.0759 35.4175 33.0908C35.3331 33.1846 35.2879 33.2845 35.2344 33.3984C35.2083 33.4505 35.1823 33.5026 35.1562 33.5547C35.1949 33.5547 35.2336 33.5547 35.2734 33.5547C35.2992 33.5676 35.325 33.5805 35.3516 33.5938C35.2355 33.6904 35.2355 33.6904 35.1172 33.7891C35.143 33.802 35.1688 33.8148 35.1953 33.8281C35.2082 33.8023 35.2211 33.7766 35.2344 33.75C35.2065 33.8919 35.1482 34.0096 35.083 34.1382C35.063 34.178 35.0429 34.2178 35.0223 34.2589C34.9658 34.3658 34.9108 34.4696 34.8438 34.5703C34.7664 34.644 34.7664 34.644 34.6802 34.7144C34.5473 34.8281 34.4394 34.9438 34.3335 35.083C34.2346 35.2118 34.1395 35.3136 34.0088 35.4102C33.9835 35.4275 33.9582 35.4448 33.9322 35.4626C33.8614 35.509 33.8614 35.509 33.7891 35.5859C33.7376 35.6132 33.6856 35.6394 33.6328 35.6641C33.6199 35.6383 33.607 35.6125 33.5938 35.5859C33.3837 35.7878 33.3837 35.7879 33.2031 36.0156C33.1773 36.0156 33.1516 36.0156 33.125 36.0156C33.125 35.977 33.125 35.9383 33.125 35.8984C33.0477 35.9242 32.9703 35.95 32.8906 35.9766C32.8004 36.0926 32.7102 36.2086 32.6172 36.3281C32.5832 36.3357 32.5493 36.3432 32.5143 36.351C32.4693 36.3612 32.4243 36.3714 32.3779 36.3818C32.3113 36.3968 32.3113 36.3968 32.2433 36.412C32.1171 36.4434 31.9965 36.477 31.875 36.5234C31.8051 36.5698 31.8051 36.5698 31.7505 36.6235C31.7142 36.655 31.678 36.6864 31.6406 36.7188C31.602 36.7316 31.5633 36.7445 31.5234 36.7578C31.5105 36.732 31.4977 36.7062 31.4844 36.6797C31.4199 36.6668 31.3555 36.6539 31.2891 36.6406C31.1988 36.718 31.1086 36.7953 31.0156 36.875C30.7965 36.9266 30.5773 36.9781 30.3516 37.0312C30.3387 36.9926 30.3258 36.9539 30.3125 36.9141C30.2827 36.927 30.2529 36.9398 30.2222 36.9531C30.0888 36.9893 29.997 36.9951 29.8608 36.9922C29.8253 36.9906 29.7898 36.989 29.7533 36.9873C29.7014 36.9897 29.7014 36.9897 29.6484 36.9922C29.5832 37.0178 29.5181 37.0439 29.4531 37.0703C29.3551 37.0874 29.2565 37.1019 29.1577 37.1143C29.0815 37.1241 29.0815 37.1241 29.0038 37.1341C28.8672 37.1484 28.8672 37.1484 28.7109 37.1484C28.7109 37.1871 28.7109 37.2258 28.7109 37.2656C28.4679 37.2951 28.231 37.308 27.9861 37.3022C27.8956 37.3046 27.8209 37.318 27.7344 37.3438C27.7344 37.3051 27.7344 37.2664 27.7344 37.2266C27.5711 37.2246 27.4077 37.2232 27.2444 37.2223C27.1889 37.2219 27.1334 37.2213 27.0779 37.2207C26.9979 37.2197 26.9179 37.2193 26.8379 37.2189C26.7898 37.2185 26.7418 37.2181 26.6922 37.2177C26.628 37.2221 26.628 37.2221 26.5625 37.2266C26.5323 37.2394 26.5021 37.2522 26.471 37.2654C26.3672 37.3047 26.3672 37.3047 26.2586 37.3158C26.2189 37.3165 26.1793 37.3171 26.1384 37.3178C26.0927 37.3187 26.047 37.3196 25.9999 37.3205C25.9254 37.3214 25.9254 37.3214 25.8495 37.3222C25.7966 37.3231 25.7438 37.324 25.6909 37.3248C25.5482 37.3271 25.4054 37.3289 25.2626 37.3305C25.1731 37.3315 25.0836 37.3327 24.9941 37.334C24.1045 37.3461 23.2165 37.3405 22.327 37.321C21.6405 37.306 20.9568 37.305 20.2706 37.3313C19.9444 37.3434 19.6269 37.3383 19.3008 37.3144C19.0046 37.2944 18.7074 37.2989 18.4106 37.2998C18.3778 37.2998 18.345 37.2998 18.3113 37.2999C17.8205 37.3002 17.3309 37.3096 16.8407 37.3333C16.7986 37.3352 16.7564 37.3371 16.713 37.339C16.677 37.3409 16.6411 37.3427 16.6041 37.3446C16.4844 37.3438 16.4844 37.3438 16.3301 37.3248C16.0741 37.2942 15.8175 37.2999 15.5602 37.3009C15.5055 37.3009 15.4508 37.301 15.3961 37.301C15.2534 37.3012 15.1106 37.3016 14.9679 37.302C14.8217 37.3024 14.6756 37.3026 14.5295 37.3028C14.2436 37.3032 13.9577 37.3039 13.6719 37.3047C13.6203 37.2789 13.5687 37.2531 13.5156 37.2266C13.1805 37.2266 12.8453 37.2266 12.5 37.2266C12.4742 37.2395 12.4484 37.2523 12.4219 37.2656C12.3961 37.2527 12.3703 37.2398 12.3438 37.2266C12.3438 37.2523 12.3438 37.2781 12.3438 37.3047C12.3695 37.3176 12.3953 37.3305 12.4219 37.3438C12.2884 37.3317 12.1549 37.3195 12.0215 37.3071C11.9837 37.3037 11.9459 37.3003 11.9069 37.2968C11.8704 37.2934 11.8339 37.29 11.7963 37.2865C11.7627 37.2835 11.7292 37.2804 11.6946 37.2772C11.6087 37.2665 11.5286 37.2496 11.4453 37.2266C11.4324 37.2008 11.4195 37.175 11.4062 37.1484C11.3798 37.1493 11.3533 37.1502 11.326 37.1512C11.0996 37.1556 10.8956 37.1404 10.6754 37.0874C10.5786 37.0689 10.4889 37.0675 10.3906 37.0703C10.3648 37.0445 10.3391 37.0187 10.3125 36.9922C10.2648 36.9931 10.2171 36.994 10.168 36.9949C9.79014 36.9999 9.43426 36.9888 9.0625 36.9141C9.02383 36.8754 8.98516 36.8367 8.94531 36.7969C8.86797 36.784 8.79062 36.7711 8.71094 36.7578C8.67227 36.6998 8.67227 36.6998 8.63281 36.6406C8.3992 36.5735 8.17158 36.5112 7.92969 36.4844C7.9168 36.4328 7.90391 36.3812 7.89062 36.3281C7.87048 36.3241 7.85034 36.3201 7.82959 36.3159C7.70077 36.2796 7.58335 36.226 7.46094 36.1719C7.46094 36.2105 7.46094 36.2492 7.46094 36.2891C7.43516 36.2891 7.40937 36.2891 7.38281 36.2891C7.38281 36.2633 7.38281 36.2375 7.38281 36.2109C7.27969 36.2109 7.17656 36.2109 7.07031 36.2109C7.01231 36.1143 7.01231 36.1143 6.95312 36.0156C6.96602 35.9641 6.97891 35.9125 6.99219 35.8594C7.00508 35.8465 7.01797 35.8336 7.03125 35.8203C6.87656 35.8332 6.72188 35.8461 6.5625 35.8594C6.49805 35.7949 6.43359 35.7305 6.36719 35.6641C6.36719 35.6383 6.36719 35.6125 6.36719 35.5859C6.32852 35.573 6.28984 35.5602 6.25 35.5469C6.23711 35.4437 6.22422 35.3406 6.21094 35.2344C6.15937 35.2344 6.10781 35.2344 6.05469 35.2344C5.99854 35.1367 5.99854 35.1367 5.9375 35C5.91725 34.8954 5.90761 34.7939 5.89844 34.6875C5.85977 34.6746 5.82109 34.6617 5.78125 34.6484C5.76353 34.6065 5.7458 34.5646 5.72754 34.5215C5.68356 34.4187 5.63753 34.318 5.58594 34.2188C5.56016 34.2059 5.53437 34.193 5.50781 34.1797C5.53359 34.1281 5.55938 34.0766 5.58594 34.0234C5.56016 34.0234 5.53437 34.0234 5.50781 34.0234C5.48203 33.9719 5.45625 33.9203 5.42969 33.8672C5.42969 33.8156 5.42969 33.7641 5.42969 33.7109C5.40391 33.7109 5.37812 33.7109 5.35156 33.7109C5.3572 33.7617 5.36284 33.8125 5.36865 33.8647C5.389 34.0479 5.40934 34.231 5.42969 34.4141C5.35234 34.3561 5.35234 34.3561 5.27344 34.2969C5.22176 34.1031 5.2309 33.9097 5.23438 33.7109C5.20859 33.7109 5.18281 33.7109 5.15625 33.7109C5.15061 33.6634 5.14497 33.6159 5.13916 33.5669C5.12391 33.4443 5.10455 33.3239 5.07812 33.2031C5.03945 33.216 5.00078 33.2289 4.96094 33.2422C4.94805 33.1906 4.93516 33.1391 4.92188 33.0859C4.89609 33.1762 4.87031 33.2664 4.84375 33.3594C4.81797 33.3336 4.79219 33.3078 4.76562 33.2812C4.73984 33.307 4.71406 33.3328 4.6875 33.3594C4.66172 33.3594 4.63594 33.3594 4.60938 33.3594C4.59648 33.2047 4.58359 33.05 4.57031 32.8906C4.50586 32.8777 4.44141 32.8648 4.375 32.8516C4.375 32.6711 4.375 32.4906 4.375 32.3047C4.41367 32.266 4.45234 32.2273 4.49219 32.1875C4.46641 32.1875 4.44062 32.1875 4.41406 32.1875C4.38828 31.9812 4.3625 31.775 4.33594 31.5625C4.37461 31.4658 4.37461 31.4658 4.41406 31.3672C4.40117 31.148 4.38828 30.9289 4.375 30.7031C4.29593 30.9113 4.29593 30.9113 4.28787 31.0304C4.29094 31.1862 4.29674 31.3325 4.33594 31.4844C4.29727 31.523 4.25859 31.5617 4.21875 31.6016C4.17463 31.4936 4.1432 31.3908 4.13052 31.2746C4.12427 31.1704 4.11978 31.0663 4.11621 30.9619C4.1147 30.9257 4.11319 30.8895 4.11163 30.8522C4.10797 30.7635 4.10463 30.6747 4.10156 30.5859C4.04356 30.5279 4.04356 30.5279 3.98438 30.4687C3.98438 30.3012 3.98438 30.1336 3.98438 29.9609C3.97148 29.9609 3.95859 29.9609 3.94531 29.9609C3.93242 29.4582 3.91953 28.9555 3.90625 28.4375C3.89336 28.4375 3.88047 28.4375 3.86719 28.4375C3.86719 28.3473 3.86719 28.257 3.86719 28.1641C3.88008 28.1512 3.89297 28.1383 3.90625 28.125C3.91914 27.777 3.93203 27.4289 3.94531 27.0703C3.97109 27.0445 3.99688 27.0187 4.02344 26.9922C4.04922 26.9148 4.075 26.8375 4.10156 26.7578C4.12734 26.7578 4.15313 26.7578 4.17969 26.7578C4.17123 26.7345 4.16277 26.7112 4.15405 26.6872C4.09825 26.5133 4.0598 26.3468 4.05334 26.1641C4.05079 25.9412 4.05363 25.7222 4.08478 25.5013C4.10658 25.3089 4.08864 25.1314 4.0655 24.94C4.00763 24.3857 4.01265 23.8311 4.01423 23.2746C4.01458 23.1248 4.0145 22.9751 4.01449 22.8253C4.01453 22.5746 4.01486 22.3239 4.0154 22.0732C4.01602 21.7845 4.01622 21.4957 4.01619 21.2069C4.01616 20.8971 4.01644 20.5873 4.01679 20.2775C4.01688 20.1891 4.0169 20.1006 4.01692 20.0122C4.01696 19.873 4.0172 19.7339 4.01759 19.5947C4.01776 19.52 4.01774 19.4452 4.01771 19.3705C4.01867 19.1092 4.03006 18.8531 4.0625 18.5938C4.08828 18.5938 4.11406 18.5938 4.14062 18.5938C4.13761 18.5702 4.13459 18.5467 4.13148 18.5224C4.09747 18.2159 4.10357 17.9147 4.11532 17.6074C4.12103 17.457 4.12583 17.3066 4.13055 17.1562C4.13151 17.1261 4.13246 17.0959 4.13344 17.0648C4.14666 16.624 4.14426 16.1831 4.14062 15.7422C4.11484 15.6906 4.08906 15.6391 4.0625 15.5859C4.05793 15.2187 4.06699 14.8582 4.10156 14.4922C4.12734 14.4922 4.15313 14.4922 4.17969 14.4922C4.17809 14.4542 4.1765 14.4162 4.17486 14.3771C4.169 14.2342 4.16376 14.0913 4.15871 13.9484C4.15645 13.8869 4.15402 13.8254 4.15142 13.7639C4.13654 13.4093 4.13485 13.0821 4.21875 12.7344C4.25576 12.5658 4.26239 12.406 4.26025 12.2339C4.26008 12.2068 4.2599 12.1798 4.25972 12.1519C4.25926 12.0856 4.25856 12.0194 4.25781 11.9531C4.18047 11.9918 4.18047 11.9918 4.10156 12.0312C4.10331 11.8577 4.10607 11.6841 4.10967 11.5105C4.11076 11.4518 4.11159 11.393 4.11215 11.3342C4.11529 11.0205 4.13048 10.7284 4.22058 10.4263C4.24523 10.3491 4.27035 10.2719 4.29688 10.1953C4.32266 10.1695 4.34844 10.1437 4.375 10.1172C4.37984 10.0777 4.38467 10.0382 4.38965 9.99756C4.41331 9.84846 4.44812 9.71426 4.49219 9.57031C4.58887 9.55098 4.58887 9.55098 4.6875 9.53125C4.69153 9.4813 4.69556 9.43135 4.69971 9.37988C4.72193 9.17435 4.77881 8.98471 4.84375 8.78906C4.83166 8.76489 4.81958 8.74072 4.80713 8.71582C4.78027 8.66211 4.75342 8.6084 4.72656 8.55469C4.77813 8.5418 4.82969 8.52891 4.88281 8.51562C4.88281 8.48984 4.88281 8.46406 4.88281 8.4375C4.90859 8.4375 4.93438 8.4375 4.96094 8.4375C4.96094 8.46328 4.96094 8.48906 4.96094 8.51562C4.98672 8.51562 5.0125 8.51562 5.03906 8.51562C5.01441 8.72597 4.98251 8.93308 4.94385 9.14124C4.88605 9.46204 4.84066 9.7834 4.80469 10.1074C4.80144 10.1365 4.7982 10.1656 4.79486 10.1956C4.69402 11.1172 4.65314 12.043 4.60938 12.9688C4.60742 13.0094 4.60546 13.0501 4.60345 13.0921C4.50379 15.1835 4.51924 17.2771 4.52121 19.3703C4.5215 19.7213 4.52139 20.0723 4.52106 20.4232C4.51224 24.3502 4.51224 24.3502 4.71348 28.2709C4.72476 28.4129 4.73487 28.5549 4.74457 28.6969C4.80767 29.5743 4.9111 30.4925 5.19531 31.3281C5.20507 31.358 5.21482 31.3878 5.22488 31.4185C5.37425 31.8716 5.55703 32.2961 5.82031 32.6953C5.92869 32.8479 6.04526 32.9873 6.17188 33.125C6.1904 33.1454 6.20892 33.1658 6.22801 33.1868C6.48794 33.47 6.75549 33.7081 7.08679 33.9043C7.13336 33.931 7.17995 33.9577 7.22656 33.9844C7.2492 33.9978 7.27183 34.0112 7.29515 34.0251C7.77836 34.3108 8.29082 34.494 8.83331 34.6339C9.58967 34.8163 10.3562 34.8864 11.1294 34.9537C11.2395 34.9635 11.3494 34.9743 11.4594 34.985C13.1018 35.1395 14.7568 35.1292 16.4048 35.1278C16.6181 35.1276 16.8313 35.1276 17.0446 35.1276C17.0909 35.1277 17.0909 35.1277 17.1382 35.1277C17.2011 35.1277 17.2639 35.1277 17.3268 35.1278C17.9102 35.128 18.4935 35.1277 19.0769 35.1273C19.5718 35.127 20.0668 35.127 20.5617 35.1274C21.1433 35.1278 21.7249 35.128 22.3064 35.1277C22.3691 35.1277 22.4317 35.1277 22.4944 35.1276C22.5406 35.1276 22.5406 35.1276 22.5877 35.1276C22.7993 35.1275 23.0109 35.1276 23.2225 35.1278C25.1967 35.1294 27.1688 35.101 29.1368 34.929C29.2141 34.9223 29.2914 34.9159 29.3687 34.9096C30.2801 34.8332 31.2002 34.6806 32.0532 34.3408C32.508 34.1506 32.9187 33.9315 33.3008 33.6194C33.6339 33.3379 33.9343 33.0346 34.1756 32.6696C34.384 32.3423 34.5481 32.0023 34.6875 31.6406C34.7051 31.5951 34.7226 31.5496 34.7408 31.5027C35.3163 29.8918 35.3105 28.0602 35.3955 26.3696C35.397 26.3402 35.3985 26.3107 35.4001 26.2804C35.4667 24.958 35.4755 23.6352 35.4766 22.3113C35.4767 22.1689 35.4768 22.0265 35.477 21.8841C35.4776 21.4326 35.4779 20.9811 35.4781 20.5296C35.4782 20.0699 35.4787 19.6102 35.4797 19.1506C35.487 16.2302 35.487 16.2302 35.4141 13.311C35.4129 13.279 35.4116 13.247 35.4104 13.214C35.3305 10.6652 35.3305 10.6652 34.8405 8.17154C34.8047 8.04688 34.8047 8.04688 34.8047 7.96875C34.8627 7.94941 34.8627 7.94941 34.9219 7.92969ZM36.0547 12.5C36.0676 12.5 36.0805 12.5 36.0938 12.5C36.0938 12.6547 36.0938 12.8094 36.0938 12.9688C36.0551 13.0332 36.0164 13.0977 35.9766 13.1641C35.9508 13.1254 35.925 13.0867 35.8984 13.0469C35.9242 12.8922 35.95 12.7375 35.9766 12.5781C36.0023 12.5523 36.0281 12.5266 36.0547 12.5Z" fill="transparent" fill-rule="nonzero" />
    <path id="vec 6" d="M34.8828 31.0547C34.9215 31.0805 34.9602 31.1063 35 31.1328C34.9804 31.2787 34.9575 31.4199 34.9219 31.5625C34.9082 31.6536 34.8951 31.7447 34.8828 31.8359C34.857 31.8617 34.8312 31.8875 34.8047 31.9141C34.8047 32.0172 34.8047 32.1203 34.8047 32.2266C34.7789 32.2266 34.7531 32.2266 34.7266 32.2266C34.7225 32.2548 34.7185 32.283 34.7144 32.312C34.6875 32.4219 34.6875 32.4219 34.6265 32.5317C34.6079 32.5599 34.5894 32.5881 34.5703 32.6172C34.5574 32.5656 34.5445 32.5141 34.5312 32.4609C34.5055 32.5512 34.4797 32.6414 34.4531 32.7344C34.4273 32.7344 34.4016 32.7344 34.375 32.7344C34.3645 32.7634 34.3541 32.7924 34.3433 32.8223C34.2985 32.9259 34.2474 32.9966 34.1797 33.0859C34.1604 33.1254 34.141 33.1649 34.1211 33.2056C34.0625 33.3203 34.0625 33.3203 34.0002 33.3861C33.9821 33.403 33.964 33.42 33.9453 33.4375C33.94 33.4588 33.9347 33.4801 33.9293 33.502C33.9009 33.6015 33.8695 33.6942 33.8281 33.7891C33.7614 33.8858 33.6902 33.9751 33.6142 34.0646C33.5946 34.0897 33.5749 34.1148 33.5547 34.1406C33.5418 34.1793 33.5289 34.218 33.5156 34.2578C33.3996 34.3545 33.3996 34.3545 33.2812 34.4531C33.2555 34.4531 33.2297 34.4531 33.2031 34.4531C33.1773 34.5047 33.1516 34.5563 33.125 34.6094C33.0863 34.6094 33.0477 34.6094 33.0078 34.6094C33.0078 34.6352 33.0078 34.6609 33.0078 34.6875C32.9691 34.7093 32.9305 34.731 32.8906 34.7534C32.7315 34.8442 32.5766 34.941 32.4219 35.0391C32.4219 35.0133 32.4219 34.9875 32.4219 34.9609C32.3961 34.9771 32.3703 34.9932 32.3438 35.0098C32.1297 35.1346 31.9179 35.2411 31.6797 35.3125C31.6539 35.3383 31.6281 35.3641 31.6016 35.3906C31.5669 35.402 31.5669 35.402 31.5315 35.4135C31.3364 35.4776 31.3364 35.4776 31.145 35.5518C31.0547 35.5859 31.0547 35.5859 30.9448 35.603C30.8393 35.6216 30.7598 35.6465 30.6616 35.686C30.6109 35.7061 30.5596 35.725 30.5078 35.7422C30.3906 35.7495 30.3906 35.7495 30.3125 35.7422C30.2867 35.768 30.2609 35.7938 30.2344 35.8203C30.1836 35.8196 30.1328 35.8189 30.0804 35.8182C29.8962 35.8182 29.7165 35.8331 29.5337 35.8545C29.505 35.8576 29.4763 35.8606 29.4468 35.8638C29.2974 35.8807 29.1529 35.9039 29.0063 35.9375C28.703 36.0001 28.3921 36.0057 28.0835 36.0205C28.0506 36.0222 28.0176 36.0239 27.9837 36.0256C27.5451 36.0479 27.1086 36.0586 26.6694 36.0533C26.4037 36.0513 26.1434 36.067 25.8789 36.0913C25.2745 36.1466 24.6683 36.1497 24.0618 36.1585C24.0211 36.1592 23.9803 36.1598 23.9384 36.1604C23.8618 36.1616 23.7852 36.1626 23.7086 36.1635C23.656 36.1643 23.656 36.1643 23.6024 36.1651C23.5723 36.1655 23.5422 36.1658 23.5112 36.1662C23.4134 36.1711 23.3186 36.1813 23.2213 36.1928C23.013 36.2139 22.8121 36.2073 22.6035 36.1944C22.186 36.172 21.7697 36.1652 21.3516 36.1639C21.2765 36.1635 21.2013 36.1631 21.1261 36.1627C20.9251 36.1616 20.7242 36.1608 20.5232 36.16C20.312 36.1592 20.1008 36.1581 19.8896 36.1571C19.4911 36.1551 19.0925 36.1534 18.694 36.1517C18.2397 36.1497 17.7854 36.1476 17.3311 36.1454C16.3978 36.141 15.4645 36.1368 14.5312 36.1328C14.5055 36.1457 14.4797 36.1586 14.4531 36.1719C14.4139 36.1595 14.3746 36.1471 14.3342 36.1343C13.8637 36.0005 13.3178 36.0496 12.832 36.0522C12.769 36.0524 12.706 36.0526 12.643 36.0528C12.4911 36.0532 12.3393 36.0539 12.1875 36.0547C12.1875 36.0289 12.1875 36.0031 12.1875 35.9766C12.1633 35.983 12.1392 35.9895 12.1143 35.9961C11.7337 36.057 11.3321 36.0053 10.9521 35.9595C10.7646 35.9282 10.5776 35.8942 10.3906 35.8594C10.3777 35.8465 10.3648 35.8336 10.3516 35.8203C10.0164 35.7816 9.68125 35.743 9.33594 35.7031C9.33594 35.6773 9.33594 35.6516 9.33594 35.625C9.31147 35.6226 9.28699 35.6203 9.26178 35.6178C9.21389 35.6129 9.21389 35.6129 9.16504 35.6079C9.11746 35.6032 9.11746 35.6032 9.06891 35.5983C9.04101 35.5942 9.01312 35.5901 8.98438 35.5859C8.9586 35.573 8.93281 35.5602 8.90625 35.5469C8.88691 35.6049 8.88691 35.6049 8.86719 35.6641C8.84141 35.6641 8.81562 35.6641 8.78906 35.6641C8.78906 35.6383 8.78906 35.6125 8.78906 35.5859C8.7375 35.5988 8.68594 35.6117 8.63281 35.625C8.55547 35.6057 8.55547 35.6057 8.47656 35.5859C8.45078 35.5602 8.425 35.5344 8.39844 35.5078C8.34804 35.4881 8.29757 35.4686 8.24707 35.4492C8.21897 35.4383 8.19088 35.4275 8.16193 35.4163C8.13685 35.4078 8.11177 35.3993 8.08594 35.3906C8.06016 35.3906 8.03437 35.3906 8.00781 35.3906C8.00781 35.3391 8.00781 35.2875 8.00781 35.2344C7.94336 35.2473 7.87891 35.2602 7.8125 35.2734C7.79075 35.2481 7.79075 35.2481 7.76855 35.2222C7.67528 35.1382 7.57414 35.0919 7.46094 35.0391C7.43516 35.0391 7.40937 35.0391 7.38281 35.0391C7.38281 35.0133 7.38281 34.9875 7.38281 34.9609C7.35703 34.9609 7.33125 34.9609 7.30469 34.9609C7.25312 34.8965 7.20156 34.832 7.14844 34.7656C7.10977 34.7463 7.10977 34.7463 7.07031 34.7266C7.07031 34.6879 7.07031 34.6492 7.07031 34.6094C7.00586 34.5836 6.94141 34.5578 6.875 34.5312C6.875 34.5055 6.875 34.4797 6.875 34.4531C6.84922 34.4531 6.82344 34.4531 6.79688 34.4531C6.78398 34.4789 6.77109 34.5047 6.75781 34.5312C6.75781 34.5055 6.75781 34.4797 6.75781 34.4531C6.71914 34.4531 6.68047 34.4531 6.64062 34.4531C6.64062 34.4016 6.64062 34.35 6.64062 34.2969C6.58906 34.2969 6.5375 34.2969 6.48438 34.2969C6.4457 34.1809 6.4457 34.1809 6.40625 34.0625C6.35469 34.0496 6.30312 34.0367 6.25 34.0234C6.23711 34.075 6.22422 34.1266 6.21094 34.1797C6.19805 34.0895 6.18516 33.9992 6.17188 33.9062C6.10742 33.8418 6.04297 33.7773 5.97656 33.7109C5.96367 33.6594 5.95078 33.6078 5.9375 33.5547C5.89883 33.5418 5.86016 33.5289 5.82031 33.5156C5.79453 33.4383 5.76875 33.3609 5.74219 33.2812C5.71641 33.2812 5.69062 33.2812 5.66406 33.2812C5.65651 33.2558 5.64896 33.2303 5.64117 33.204C5.5777 32.9902 5.5777 32.9902 5.50781 32.7783C5.44565 32.5841 5.39966 32.3857 5.35156 32.1875C5.36445 32.123 5.37734 32.0586 5.39062 31.9922C5.48094 32.1056 5.55457 32.2253 5.62717 32.3506C5.88023 32.7863 6.18047 33.1619 6.54358 33.5114C6.75083 33.7023 6.98285 33.845 7.22656 33.9844C7.2492 33.9978 7.27183 34.0112 7.29515 34.0251C7.77836 34.3108 8.29082 34.494 8.83331 34.6339C9.58967 34.8163 10.3562 34.8864 11.1294 34.9537C11.2395 34.9635 11.3494 34.9743 11.4594 34.985C13.1018 35.1395 14.7568 35.1292 16.4048 35.1278C16.6181 35.1276 16.8313 35.1276 17.0446 35.1276C17.0909 35.1277 17.0909 35.1277 17.1382 35.1277C17.2011 35.1277 17.2639 35.1277 17.3268 35.1278C17.9102 35.128 18.4935 35.1277 19.0769 35.1273C19.5718 35.127 20.0668 35.127 20.5617 35.1274C21.1433 35.1278 21.7249 35.128 22.3064 35.1277C22.3691 35.1277 22.4317 35.1277 22.4944 35.1276C22.5406 35.1276 22.5406 35.1276 22.5877 35.1276C22.7993 35.1275 23.0109 35.1277 23.2225 35.1278C25.1967 35.1294 27.1688 35.101 29.1368 34.929C29.2141 34.9223 29.2914 34.9159 29.3687 34.9096C30.2801 34.8332 31.2002 34.6806 32.0532 34.3408C32.508 34.1506 32.9187 33.9315 33.3008 33.6194C33.6339 33.3379 33.9343 33.0346 34.1756 32.6696C34.4972 32.1646 34.7053 31.6241 34.8828 31.0547Z" fill="rgb(176,174,171)" fill-rule="nonzero" />
    <path id="vec 7" d="M15.6641 19.0234C15.8428 19.0761 16.0029 19.1506 16.1689 19.2334C16.9564 19.6249 17.7676 19.8488 18.6328 20C19.0955 20.0744 19.5613 20.1369 20.0284 20.1753C20.2343 20.1932 20.4346 20.2281 20.6372 20.2686C20.6728 20.2756 20.7085 20.2826 20.7452 20.2898C20.8161 20.3038 20.8871 20.3179 20.9579 20.3322C21.041 20.3488 21.1241 20.365 21.2073 20.381C21.7399 20.4879 22.2523 20.6447 22.7344 20.8984C22.9403 21.0144 23.1371 21.1373 23.3105 21.2988C23.4911 21.4915 23.6278 21.7187 23.7514 21.951C23.8324 22.1261 23.8743 22.3106 23.9062 22.5C23.9361 22.8253 23.9433 23.1689 23.8911 23.492C23.8158 23.8266 23.6701 24.1437 23.5106 24.446C23.3992 24.6355 23.2779 24.8027 23.125 24.9609C22.8947 25.1711 22.6517 25.3505 22.3828 25.5078C22.2926 25.4949 22.2023 25.482 22.1094 25.4688C22.0449 25.4043 21.9805 25.3398 21.9141 25.2734C21.9141 25.2477 21.9141 25.2219 21.9141 25.1953C21.8625 25.1824 21.8109 25.1695 21.7578 25.1562C21.7191 25.1176 21.6805 25.0789 21.6406 25.0391C21.6406 25.0133 21.6406 24.9875 21.6406 24.9609C21.602 24.948 21.5633 24.9352 21.5234 24.9219C21.4928 24.8905 21.4622 24.859 21.4307 24.8267C21.3799 24.7771 21.3799 24.7771 21.3281 24.7266C21.3023 24.7137 21.2766 24.7008 21.25 24.6875C21.25 24.6617 21.25 24.6359 21.25 24.6094C21.2242 24.6094 21.1984 24.6094 21.1719 24.6094C21.1719 24.5836 21.1719 24.5578 21.1719 24.5312C21.1461 24.5312 21.1203 24.5312 21.0938 24.5312C21.0726 24.5011 21.0514 24.471 21.0295 24.44C21.0016 24.4008 20.9736 24.3617 20.9448 24.3213C20.9034 24.2628 20.9034 24.2628 20.8611 24.2032C20.8347 24.1697 20.8084 24.1361 20.7812 24.1016C20.7426 24.0758 20.7039 24.05 20.6641 24.0234C20.6641 23.9977 20.6641 23.9719 20.6641 23.9453C20.6383 23.9453 20.6125 23.9453 20.5859 23.9453C20.5859 23.9195 20.5859 23.8937 20.5859 23.8672C20.5602 23.8672 20.5344 23.8672 20.5078 23.8672C20.5078 23.8414 20.5078 23.8156 20.5078 23.7891C20.4562 23.7891 20.4047 23.7891 20.3516 23.7891C20.324 23.7524 20.324 23.7524 20.2959 23.7149C20.2715 23.683 20.2472 23.6511 20.2222 23.6182C20.1981 23.5864 20.1741 23.5547 20.1494 23.522C20.0783 23.4298 20.0783 23.4298 19.9609 23.3594C19.9609 23.3207 19.9609 23.282 19.9609 23.2422C19.9384 23.2321 19.9159 23.2219 19.8927 23.2115C19.7977 23.1603 19.7263 23.1017 19.646 23.0298C19.6066 22.9948 19.6066 22.9948 19.5665 22.9591C19.5209 22.9171 19.4759 22.8742 19.4322 22.8302C19.372 22.7705 19.3087 22.7174 19.2432 22.6636C19.1138 22.5537 19.0129 22.4365 18.9062 22.3047C18.8417 22.2391 18.7765 22.1741 18.7109 22.1094C18.667 22.0655 18.623 22.0215 18.5791 21.9775C18.5559 21.9544 18.5328 21.9312 18.5089 21.9073C18.127 21.5255 17.7452 21.1436 17.3633 20.7617C17.34 20.7385 17.3167 20.7152 17.2926 20.6912C17.2369 20.6353 17.1816 20.579 17.1265 20.5225C17.0313 20.4268 17.0313 20.4268 16.9189 20.3394C16.7931 20.2371 16.6932 20.1173 16.5883 19.9942C16.5094 19.9063 16.4219 19.8372 16.3281 19.7656C16.2621 19.7014 16.1972 19.6362 16.1328 19.5703C16.0767 19.5141 16.0206 19.458 15.9644 19.4019C15.9163 19.3538 15.8683 19.3058 15.8203 19.2578C15.8203 19.232 15.8203 19.2062 15.8203 19.1797C15.7816 19.1668 15.743 19.1539 15.7031 19.1406C15.6902 19.102 15.6773 19.0633 15.6641 19.0234Z" fill="rgb(22,22,26)" fill-rule="nonzero" />
    <path id="vec 8" d="M25.5078 11.7188C25.6223 11.8302 25.7282 11.9395 25.8203 12.0703C25.7933 12.137 25.7933 12.137 25.7422 12.2266C25.6802 12.2899 25.6155 12.3507 25.5493 12.4097C25.5302 12.4267 25.5111 12.4438 25.4914 12.4614C25.3306 12.6039 25.1648 12.7398 24.9977 12.8748C24.8448 12.9999 24.6952 13.1286 24.5455 13.2575C24.3076 13.4622 24.068 13.6648 23.8281 13.8672C23.7895 13.8285 23.7508 13.7898 23.7109 13.75C23.7911 13.6056 23.8787 13.4946 23.9956 13.3783C24.0292 13.3447 24.0629 13.3111 24.0975 13.2765C24.1336 13.2407 24.1698 13.205 24.207 13.1682C24.2445 13.1308 24.282 13.0934 24.3195 13.056C24.4177 12.9581 24.5163 12.8603 24.6148 12.7626C24.7155 12.6627 24.816 12.5626 24.9165 12.4625C25.1134 12.2665 25.3105 12.0707 25.5078 11.875C25.5078 11.8234 25.5078 11.7719 25.5078 11.7188Z" fill="rgb(184,128,85)" fill-rule="nonzero" />
    <path id="vec 9" d="M11.6797 4.29686C11.6539 4.32264 11.6281 4.34842 11.6016 4.37499C11.1924 4.41711 11.1924 4.41711 11.001 4.41161C10.9309 4.41282 10.9309 4.41282 10.8594 4.41405C10.7934 4.43774 10.7283 4.46399 10.6641 4.49217C10.4349 4.55477 10.1986 4.59925 9.96094 4.60936C9.84131 4.59227 9.84131 4.59227 9.76562 4.5703C9.75273 4.59608 9.73984 4.62186 9.72656 4.64842C9.64922 4.62264 9.57187 4.59686 9.49219 4.5703C9.49219 4.55741 9.49219 4.54452 9.49219 4.53124C11.1552 4.27867 11.1552 4.27867 11.6797 4.29686Z" fill="rgb(80,80,79)" fill-rule="nonzero" />
</svg>
